<svg width="150" height="23" viewBox="0 0 150 23" fill="none" xmlns="http://www.w3.org/2000/svg">
<path d="M9.33333 17.5V12.1833C8.62222 12.1833 7.93889 12.0472 7.28333 11.775C6.62778 11.5028 6.05 11.1167 5.55 10.6167C5.05 10.1167 4.66667 9.53889 4.4 8.88333C4.13333 8.22778 4 7.54444 4 6.83333V5.5H5.33333C6.03333 5.5 6.71111 5.63611 7.36667 5.90833C8.02222 6.18056 8.6 6.56667 9.1 7.06667C9.44444 7.41111 9.73056 7.78889 9.95833 8.2C10.1861 8.61111 10.3611 9.05 10.4833 9.51667C10.5389 9.43889 10.6 9.36389 10.6667 9.29167C10.7333 9.21944 10.8056 9.14444 10.8833 9.06667C11.3833 8.56667 11.9611 8.18056 12.6167 7.90833C13.2722 7.63611 13.9556 7.5 14.6667 7.5H16V8.83333C16 9.54444 15.8639 10.2278 15.5917 10.8833C15.3194 11.5389 14.9333 12.1167 14.4333 12.6167C13.9333 13.1167 13.3583 13.5 12.7083 13.7667C12.0583 14.0333 11.3778 14.1667 10.6667 14.1667V17.5H9.33333ZM9.33333 10.8333C9.33333 10.3 9.23056 9.79167 9.025 9.30833C8.81944 8.825 8.52778 8.39444 8.15 8.01667C7.77222 7.63889 7.34167 7.34722 6.85833 7.14167C6.375 6.93611 5.86667 6.83333 5.33333 6.83333C5.33333 7.36667 5.43333 7.87778 5.63333 8.36667C5.83333 8.85556 6.12222 9.28889 6.5 9.66667C6.87778 10.0444 7.31111 10.3333 7.8 10.5333C8.28889 10.7333 8.8 10.8333 9.33333 10.8333ZM10.6667 12.8333C11.2 12.8333 11.7083 12.7333 12.1917 12.5333C12.675 12.3333 13.1056 12.0444 13.4833 11.6667C13.8611 11.2889 14.1528 10.8556 14.3583 10.3667C14.5639 9.87778 14.6667 9.36667 14.6667 8.83333C14.1333 8.83333 13.6222 8.93611 13.1333 9.14167C12.6444 9.34722 12.2111 9.63889 11.8333 10.0167C11.4556 10.3944 11.1667 10.825 10.9667 11.3083C10.7667 11.7917 10.6667 12.3 10.6667 12.8333Z" fill="#666569"/>
<path d="M25.04 4.8C25.9867 4.8 26.8 4.96667 27.48 5.3C28.1733 5.63333 28.7133 6.10667 29.1 6.72C29.4867 7.33333 29.68 8.07333 29.68 8.94C29.68 9.79333 29.4867 10.5333 29.1 11.16C28.7133 11.7733 28.1733 12.2467 27.48 12.58C26.8 12.9133 25.9867 13.08 25.04 13.08H22.1V18H19.96V4.8H25.04ZM24.7 11.24C25.6467 11.24 26.34 11.0467 26.78 10.66C27.2333 10.26 27.46 9.68667 27.46 8.94C27.46 8.18 27.2333 7.60667 26.78 7.22C26.34 6.82 25.6467 6.62 24.7 6.62H22.1V11.24H24.7ZM37.8791 4.8C39.2924 4.8 40.4124 5.15333 41.2391 5.86C42.0791 6.56667 42.4991 7.52 42.4991 8.72C42.4991 9.96 42.0791 10.92 41.2391 11.6C40.4124 12.2667 39.2924 12.6 37.8791 12.6L37.6791 12.72H34.6191V18H32.4991V4.8H37.8791ZM37.7191 10.94C38.5857 10.94 39.2257 10.7667 39.6391 10.42C40.0657 10.06 40.2791 9.51333 40.2791 8.78C40.2791 8.06 40.0657 7.52 39.6391 7.16C39.2257 6.8 38.5857 6.62 37.7191 6.62H34.6191V10.94H37.7191ZM38.9791 11.38L43.2791 18H40.8191L37.1391 12.22L38.9791 11.38ZM45.9366 18V4.8H55.4966V6.64H48.0766V10.44H53.8766V12.24H48.0766V16.16H55.7766V18H45.9366ZM63.1514 4.6C64.3381 4.6 65.3647 4.82667 66.2314 5.28C67.0981 5.72 67.8314 6.37333 68.4314 7.24L66.9914 8.62C66.4847 7.84667 65.9114 7.29333 65.2714 6.96C64.6447 6.61333 63.8981 6.44 63.0314 6.44C62.3914 6.44 61.8647 6.52667 61.4514 6.7C61.0381 6.87333 60.7314 7.10667 60.5314 7.4C60.3447 7.68 60.2514 8 60.2514 8.36C60.2514 8.77333 60.3914 9.13333 60.6714 9.44C60.9647 9.74667 61.5047 9.98667 62.2914 10.16L64.9714 10.76C66.2514 11.04 67.1581 11.4667 67.6914 12.04C68.2247 12.6133 68.4914 13.34 68.4914 14.22C68.4914 15.0333 68.2714 15.74 67.8314 16.34C67.3914 16.94 66.7781 17.4 65.9914 17.72C65.2181 18.04 64.3047 18.2 63.2514 18.2C62.3181 18.2 61.4781 18.08 60.7314 17.84C59.9847 17.6 59.3314 17.2733 58.7714 16.86C58.2114 16.4467 57.7514 15.9733 57.3914 15.44L58.8714 13.96C59.1514 14.4267 59.5047 14.8467 59.9314 15.22C60.3581 15.58 60.8514 15.86 61.4114 16.06C61.9847 16.26 62.6181 16.36 63.3114 16.36C63.9247 16.36 64.4514 16.2867 64.8914 16.14C65.3447 15.9933 65.6847 15.78 65.9114 15.5C66.1514 15.2067 66.2714 14.86 66.2714 14.46C66.2714 14.0733 66.1381 13.7333 65.8714 13.44C65.6181 13.1467 65.1381 12.92 64.4314 12.76L61.5314 12.1C60.7314 11.9267 60.0714 11.68 59.5514 11.36C59.0314 11.04 58.6447 10.6533 58.3914 10.2C58.1381 9.73333 58.0114 9.21333 58.0114 8.64C58.0114 7.89333 58.2114 7.22 58.6114 6.62C59.0247 6.00667 59.6181 5.52 60.3914 5.16C61.1647 4.78667 62.0847 4.6 63.1514 4.6ZM82.3034 4.8V18H80.1434V4.8H82.3034ZM73.6234 4.8V18H71.4834V4.8H73.6234ZM81.2234 10.4V12.24H72.5634V10.4H81.2234ZM95.75 6.64H88.35V10.48H94.15V12.32H88.35V18H86.21V4.8H95.75V6.64ZM103.721 4.6C105.001 4.6 106.108 4.87333 107.041 5.42C107.975 5.96667 108.695 6.74667 109.201 7.76C109.708 8.77333 109.961 9.98667 109.961 11.4C109.961 12.8133 109.708 14.0267 109.201 15.04C108.695 16.0533 107.975 16.8333 107.041 17.38C106.108 17.9267 105.001 18.2 103.721 18.2C102.455 18.2 101.355 17.9267 100.421 17.38C99.4879 16.8333 98.7679 16.0533 98.2613 15.04C97.7546 14.0267 97.5013 12.8133 97.5013 11.4C97.5013 9.98667 97.7546 8.77333 98.2613 7.76C98.7679 6.74667 99.4879 5.96667 100.421 5.42C101.355 4.87333 102.455 4.6 103.721 4.6ZM103.721 6.46C102.895 6.46 102.181 6.65333 101.581 7.04C100.995 7.42667 100.541 7.98667 100.221 8.72C99.9013 9.45333 99.7413 10.3467 99.7413 11.4C99.7413 12.44 99.9013 13.3333 100.221 14.08C100.541 14.8133 100.995 15.3733 101.581 15.76C102.181 16.1467 102.895 16.34 103.721 16.34C104.561 16.34 105.275 16.1467 105.861 15.76C106.461 15.3733 106.921 14.8133 107.241 14.08C107.561 13.3333 107.721 12.44 107.721 11.4C107.721 10.3467 107.561 9.45333 107.241 8.72C106.921 7.98667 106.461 7.42667 105.861 7.04C105.275 6.65333 104.561 6.46 103.721 6.46ZM115.284 16.16H122.564V18H113.144V4.8H115.284V16.16ZM127.256 4.8V18H125.116V4.8H127.256ZM136.651 4.6C137.931 4.6 139.038 4.87333 139.971 5.42C140.904 5.96667 141.624 6.74667 142.131 7.76C142.638 8.77333 142.891 9.98667 142.891 11.4C142.891 12.8133 142.638 14.0267 142.131 15.04C141.624 16.0533 140.904 16.8333 139.971 17.38C139.038 17.9267 137.931 18.2 136.651 18.2C135.384 18.2 134.284 17.9267 133.351 17.38C132.418 16.8333 131.698 16.0533 131.191 15.04C130.684 14.0267 130.431 12.8133 130.431 11.4C130.431 9.98667 130.684 8.77333 131.191 7.76C131.698 6.74667 132.418 5.96667 133.351 5.42C134.284 4.87333 135.384 4.6 136.651 4.6ZM136.651 6.46C135.824 6.46 135.111 6.65333 134.511 7.04C133.924 7.42667 133.471 7.98667 133.151 8.72C132.831 9.45333 132.671 10.3467 132.671 11.4C132.671 12.44 132.831 13.3333 133.151 14.08C133.471 14.8133 133.924 15.3733 134.511 15.76C135.111 16.1467 135.824 16.34 136.651 16.34C137.491 16.34 138.204 16.1467 138.791 15.76C139.391 15.3733 139.851 14.8133 140.171 14.08C140.491 13.3333 140.651 12.44 140.651 11.4C140.651 10.3467 140.491 9.45333 140.171 8.72C139.851 7.98667 139.391 7.42667 138.791 7.04C138.204 6.65333 137.491 6.46 136.651 6.46Z" fill="black"/>
</svg>
