<svg width="927" height="400" viewBox="0 0 927 400" fill="none" xmlns="http://www.w3.org/2000/svg">
<rect width="927" height="399.142" fill="white"/>
<rect width="884.976" height="290" transform="translate(21 52)" fill="#EEF2FB"/>
<line y1="-0.116567" x2="175.788" y2="-0.116567" transform="matrix(0.00791674 0.999969 -0.999826 0.01863 132.904 109.108)" stroke="#848484" stroke-opacity="0.9" stroke-width="0.233134" stroke-dasharray="2.8 2.8"/>
<line y1="-0.116567" x2="175.788" y2="-0.116567" transform="matrix(0.00802173 0.999968 -0.999831 0.0183863 161.572 109.108)" stroke="#848484" stroke-opacity="0.9" stroke-width="0.233134" stroke-dasharray="2.8 2.8"/>
<line y1="-0.116567" x2="175.788" y2="-0.116567" transform="matrix(0.00802173 0.999968 -0.999831 0.0183863 190.258 109.108)" stroke="#848484" stroke-opacity="0.9" stroke-width="0.233134" stroke-dasharray="2.8 2.8"/>
<line y1="-0.116567" x2="175.788" y2="-0.116567" transform="matrix(0.00802173 0.999968 -0.999831 0.0183863 218.944 109.108)" stroke="#848484" stroke-opacity="0.9" stroke-width="0.233134" stroke-dasharray="2.8 2.8"/>
<line y1="-0.116567" x2="175.788" y2="-0.116567" transform="matrix(0.00802173 0.999968 -0.999831 0.0183863 247.63 109.108)" stroke="#848484" stroke-opacity="0.9" stroke-width="0.233134" stroke-dasharray="2.8 2.8"/>
<line y1="-0.116567" x2="175.788" y2="-0.116567" transform="matrix(0.00802173 0.999968 -0.999831 0.0183863 276.315 109.108)" stroke="#848484" stroke-opacity="0.9" stroke-width="0.233134" stroke-dasharray="2.8 2.8"/>
<line y1="-0.116567" x2="175.788" y2="-0.116567" transform="matrix(0.00802173 0.999968 -0.999831 0.0183863 305.001 109.108)" stroke="#848484" stroke-opacity="0.9" stroke-width="0.233134" stroke-dasharray="2.8 2.8"/>
<line y1="-0.116567" x2="175.788" y2="-0.116567" transform="matrix(0.00802173 0.999968 -0.999831 0.0183863 333.687 109.108)" stroke="#848484" stroke-opacity="0.9" stroke-width="0.233134" stroke-dasharray="2.8 2.8"/>
<line y1="-0.116567" x2="175.788" y2="-0.116567" transform="matrix(0.00802173 0.999968 -0.999831 0.0183863 362.373 109.108)" stroke="#848484" stroke-opacity="0.9" stroke-width="0.233134" stroke-dasharray="2.8 2.8"/>
<line y1="-0.116567" x2="175.788" y2="-0.116567" transform="matrix(0.00802173 0.999968 -0.999831 0.0183863 391.059 109.108)" stroke="#848484" stroke-opacity="0.9" stroke-width="0.233134" stroke-dasharray="2.8 2.8"/>
<line y1="-0.116567" x2="175.788" y2="-0.116567" transform="matrix(0.00802173 0.999968 -0.999831 0.0183863 419.745 109.108)" stroke="#848484" stroke-opacity="0.9" stroke-width="0.233134" stroke-dasharray="2.8 2.8"/>
<line y1="-0.116567" x2="175.788" y2="-0.116567" transform="matrix(0.00802173 0.999968 -0.999831 0.0183863 448.431 109.108)" stroke="#848484" stroke-opacity="0.9" stroke-width="0.233134" stroke-dasharray="2.8 2.8"/>
<line y1="-0.116567" x2="175.788" y2="-0.116567" transform="matrix(0.00802173 0.999968 -0.999831 0.0183863 477.117 109.108)" stroke="#848484" stroke-opacity="0.9" stroke-width="0.233134" stroke-dasharray="2.8 2.8"/>
<line y1="-0.116567" x2="175.788" y2="-0.116567" transform="matrix(0.00802173 0.999968 -0.999831 0.0183863 505.803 109.108)" stroke="#848484" stroke-opacity="0.9" stroke-width="0.233134" stroke-dasharray="2.8 2.8"/>
<line y1="-0.116567" x2="175.788" y2="-0.116567" transform="matrix(0.00802173 0.999968 -0.999831 0.0183863 534.489 109.108)" stroke="#848484" stroke-opacity="0.9" stroke-width="0.233134" stroke-dasharray="2.8 2.8"/>
<line y1="-0.116567" x2="175.788" y2="-0.116567" transform="matrix(0.00802173 0.999968 -0.999831 0.0183863 563.174 109.108)" stroke="#848484" stroke-opacity="0.9" stroke-width="0.233134" stroke-dasharray="2.8 2.8"/>
<line y1="-0.116567" x2="175.788" y2="-0.116567" transform="matrix(0.00802173 0.999968 -0.999831 0.0183863 591.86 109.108)" stroke="#848484" stroke-opacity="0.9" stroke-width="0.233134" stroke-dasharray="2.8 2.8"/>
<line y1="-0.116567" x2="175.788" y2="-0.116567" transform="matrix(0.00802173 0.999968 -0.999831 0.0183863 620.546 109.108)" stroke="#848484" stroke-opacity="0.9" stroke-width="0.233134" stroke-dasharray="2.8 2.8"/>
<line y1="-0.116567" x2="175.788" y2="-0.116567" transform="matrix(0.00802173 0.999968 -0.999831 0.0183863 649.232 109.108)" stroke="#848484" stroke-opacity="0.9" stroke-width="0.233134" stroke-dasharray="2.8 2.8"/>
<line y1="-0.116567" x2="175.788" y2="-0.116567" transform="matrix(0.00802173 0.999968 -0.999831 0.0183863 677.918 109.108)" stroke="#848484" stroke-opacity="0.9" stroke-width="0.233134" stroke-dasharray="2.8 2.8"/>
<line y1="-0.116567" x2="175.788" y2="-0.116567" transform="matrix(0.00802173 0.999968 -0.999831 0.0183863 706.604 109.108)" stroke="#848484" stroke-opacity="0.9" stroke-width="0.233134" stroke-dasharray="2.8 2.8"/>
<line y1="-0.116567" x2="175.788" y2="-0.116567" transform="matrix(0.00802173 0.999968 -0.999831 0.0183863 735.29 109.108)" stroke="#848484" stroke-opacity="0.9" stroke-width="0.233134" stroke-dasharray="2.8 2.8"/>
<line y1="-0.116567" x2="175.788" y2="-0.116567" transform="matrix(0.00802173 0.999968 -0.999831 0.0183863 763.976 109.108)" stroke="#848484" stroke-opacity="0.9" stroke-width="0.233134" stroke-dasharray="2.8 2.8"/>
<line y1="-0.116567" x2="175.788" y2="-0.116567" transform="matrix(0.00802173 0.999968 -0.999831 0.0183863 792.662 109.108)" stroke="#848484" stroke-opacity="0.9" stroke-width="0.233134" stroke-dasharray="2.8 2.8"/>
<path d="M641.995 266.8V257.02H644.535C646.995 257.02 649.015 258.62 649.015 261.94C649.015 265.22 646.975 266.8 644.515 266.8H641.995ZM644.595 269C648.435 269 651.515 266.48 651.515 261.94C651.515 257.38 648.475 254.82 644.615 254.82H639.595V269H644.595ZM653.229 266.36C653.229 267.9 654.489 269.3 656.529 269.3C658.109 269.3 659.069 268.5 659.529 267.76C659.529 268.54 659.609 268.94 659.629 269H661.789C661.769 268.9 661.669 268.32 661.669 267.44V262.6C661.669 260.66 660.529 258.96 657.529 258.96C655.129 258.96 653.609 260.46 653.429 262.14L655.549 262.62C655.649 261.64 656.329 260.86 657.549 260.86C658.829 260.86 659.389 261.52 659.389 262.34C659.389 262.68 659.229 262.96 658.669 263.04L656.169 263.42C654.509 263.66 653.229 264.62 653.229 266.36ZM656.969 267.48C656.049 267.48 655.549 266.88 655.549 266.22C655.549 265.42 656.129 265.02 656.849 264.9L659.389 264.52V264.96C659.389 266.86 658.269 267.48 656.969 267.48ZM667.199 272.94L673.399 259.26H670.939L668.319 265.42L665.519 259.26H662.899L667.059 267.84L664.719 272.94H667.199ZM689.199 256.38C688.639 256.02 687.639 255.74 686.439 255.74C682.419 255.74 679.479 258.58 679.479 263.28C679.479 266.6 681.359 269.3 684.659 269.3C687.379 269.3 689.579 267.5 689.579 264.8C689.579 262.14 687.759 260.42 685.179 260.42C683.799 260.42 682.559 260.92 681.879 261.96C682.099 259.44 683.859 257.82 686.299 257.82C687.359 257.82 688.039 258.08 688.519 258.34L689.199 256.38ZM682.139 264.84C682.139 263.32 683.299 262.42 684.659 262.42C686.019 262.42 687.179 263.32 687.179 264.84C687.179 266.34 686.019 267.26 684.659 267.26C683.339 267.26 682.139 266.32 682.139 264.84ZM700.685 264.18V262.12H695.045V264.18H700.685ZM715.332 256.04H705.652V258.14H712.612C712.612 258.14 708.092 261.76 707.532 269H710.012C710.592 262.32 714.252 259.04 715.332 258.14V256.04Z" fill="#797979"/>
<path d="M545.37 292.19V278.01H542.95V283.87H536.29V278.01H533.89V292.19H536.29V286.13H542.95V292.19H545.37ZM550.873 292.19V282.45H548.573V292.19H550.873ZM548.213 279.03C548.213 279.87 548.893 280.53 549.713 280.53C550.553 280.53 551.233 279.87 551.233 279.03C551.233 278.19 550.553 277.51 549.713 277.51C548.893 277.51 548.213 278.19 548.213 279.03ZM561.426 292.19V286.47H567.186V284.25H561.426V280.27H567.846V278.01H559.026V292.19H561.426ZM572.201 292.19V282.45H569.901V292.19H572.201ZM569.541 279.03C569.541 279.87 570.221 280.53 571.041 280.53C571.881 280.53 572.561 279.87 572.561 279.03C572.561 278.19 571.881 277.51 571.041 277.51C570.221 277.51 569.541 278.19 569.541 279.03ZM574.994 290.73C574.994 291.65 575.634 292.25 576.514 292.25C576.774 292.25 576.914 292.19 576.994 292.15C576.974 293.19 576.134 294.11 575.214 294.31V295.49C576.574 295.31 578.474 294.13 578.474 291.33C578.474 290.05 577.714 289.21 576.654 289.21C575.714 289.21 574.994 289.89 574.994 290.73ZM588.829 284.53V280.13H591.329C592.849 280.13 593.769 280.99 593.769 282.35C593.769 283.69 592.849 284.53 591.329 284.53H588.829ZM591.689 286.65C594.409 286.65 596.209 284.83 596.209 282.33C596.209 279.85 594.409 278.01 591.689 278.01H586.429V292.19H588.829V286.65H591.689ZM603.706 282.39C603.606 282.37 603.366 282.33 603.086 282.33C601.806 282.33 600.726 282.95 600.266 284.01V282.45H598.006V292.19H600.326V287.55C600.326 285.73 601.146 284.69 602.946 284.69C603.186 284.69 603.446 284.71 603.706 284.75V282.39ZM609.825 290.41C608.405 290.41 607.105 289.33 607.105 287.31C607.105 285.29 608.405 284.25 609.825 284.25C611.265 284.25 612.545 285.29 612.545 287.31C612.545 289.35 611.265 290.41 609.825 290.41ZM609.825 282.15C606.925 282.15 604.785 284.33 604.785 287.31C604.785 290.31 606.925 292.49 609.825 292.49C612.745 292.49 614.885 290.31 614.885 287.31C614.885 284.33 612.745 282.15 609.825 282.15ZM620.009 279.47H617.909V280.93C617.909 281.79 617.449 282.45 616.409 282.45H615.909V284.51H617.709V289.41C617.709 291.23 618.829 292.31 620.629 292.31C621.469 292.31 621.909 292.15 622.049 292.09V290.17C621.949 290.19 621.569 290.25 621.249 290.25C620.389 290.25 620.009 289.89 620.009 289.03V284.51H622.029V282.45H620.009V279.47ZM628.595 290.41C627.175 290.41 625.875 289.33 625.875 287.31C625.875 285.29 627.175 284.25 628.595 284.25C630.035 284.25 631.315 285.29 631.315 287.31C631.315 289.35 630.035 290.41 628.595 290.41ZM628.595 282.15C625.695 282.15 623.555 284.33 623.555 287.31C623.555 290.31 625.695 292.49 628.595 292.49C631.515 292.49 633.655 290.31 633.655 287.31C633.655 284.33 631.515 282.15 628.595 282.15ZM638.778 279.47H636.678V280.93C636.678 281.79 636.218 282.45 635.178 282.45H634.678V284.51H636.478V289.41C636.478 291.23 637.598 292.31 639.398 292.31C640.238 292.31 640.678 292.15 640.818 292.09V290.17C640.718 290.19 640.338 290.25 640.018 290.25C639.158 290.25 638.778 289.89 638.778 289.03V284.51H640.798V282.45H638.778V279.47ZM646.298 296.13L652.498 282.45H650.038L647.418 288.61L644.618 282.45H641.998L646.158 291.03L643.818 296.13H646.298ZM656.498 295.99V291.09C656.998 291.83 658.058 292.43 659.458 292.43C662.258 292.43 664.038 290.23 664.038 287.31C664.038 284.43 662.418 282.23 659.538 282.23C658.038 282.23 656.918 282.93 656.438 283.77V282.45H654.198V295.99H656.498ZM661.718 287.31C661.718 289.17 660.638 290.37 659.098 290.37C657.578 290.37 656.478 289.17 656.478 287.31C656.478 285.49 657.578 284.29 659.098 284.29C660.658 284.29 661.718 285.49 661.718 287.31ZM668.568 292.19V282.45H666.268V292.19H668.568ZM665.908 279.03C665.908 279.87 666.588 280.53 667.408 280.53C668.248 280.53 668.928 279.87 668.928 279.03C668.928 278.19 668.248 277.51 667.408 277.51C666.588 277.51 665.908 278.19 665.908 279.03ZM673.881 286.57C673.881 285.29 674.581 284.27 675.901 284.27C677.361 284.27 677.901 285.23 677.901 286.43V292.19H680.221V286.03C680.221 283.89 679.081 282.17 676.701 282.17C675.621 282.17 674.461 282.63 673.821 283.75V282.45H671.561V292.19H673.881V286.57ZM682.345 292.73C682.605 294.69 684.405 296.29 686.985 296.29C690.645 296.29 691.985 293.87 691.985 291.27V282.45H689.745V283.69C689.325 282.89 688.385 282.27 686.865 282.27C684.185 282.27 682.365 284.41 682.365 287.01C682.365 289.75 684.265 291.75 686.865 291.75C688.285 291.75 689.265 291.09 689.685 290.33V291.35C689.685 293.33 688.765 294.27 686.925 294.27C685.585 294.27 684.645 293.37 684.485 292.17L682.345 292.73ZM687.245 289.77C685.725 289.77 684.705 288.71 684.705 287.01C684.705 285.35 685.765 284.27 687.245 284.27C688.685 284.27 689.745 285.35 689.745 287.01C689.745 288.69 688.725 289.77 687.245 289.77ZM699.183 289.55C699.183 291.09 700.443 292.49 702.483 292.49C704.063 292.49 705.023 291.69 705.483 290.95C705.483 291.73 705.563 292.13 705.583 292.19H707.743C707.723 292.09 707.623 291.51 707.623 290.63V285.79C707.623 283.85 706.483 282.15 703.483 282.15C701.083 282.15 699.563 283.65 699.383 285.33L701.503 285.81C701.603 284.83 702.283 284.05 703.503 284.05C704.783 284.05 705.343 284.71 705.343 285.53C705.343 285.87 705.183 286.15 704.623 286.23L702.123 286.61C700.463 286.85 699.183 287.81 699.183 289.55ZM702.923 290.67C702.003 290.67 701.503 290.07 701.503 289.41C701.503 288.61 702.083 288.21 702.803 288.09L705.343 287.71V288.15C705.343 290.05 704.223 290.67 702.923 290.67ZM712.748 286.57C712.748 285.29 713.448 284.27 714.768 284.27C716.228 284.27 716.768 285.23 716.768 286.43V292.19H719.088V286.03C719.088 283.89 717.948 282.17 715.568 282.17C714.488 282.17 713.328 282.63 712.688 283.75V282.45H710.428V292.19H712.748V286.57ZM723.472 287.29C723.472 285.43 724.592 284.25 726.112 284.25C727.632 284.25 728.672 285.41 728.672 287.27C728.672 289.13 727.612 290.39 726.092 290.39C724.512 290.39 723.472 289.15 723.472 287.29ZM730.912 277.71H728.652V283.59C728.352 282.97 727.492 282.19 725.792 282.19C723.052 282.19 721.152 284.49 721.152 287.29C721.152 290.23 723.032 292.43 725.832 292.43C727.212 292.43 728.232 291.75 728.692 290.93C728.692 291.33 728.752 291.97 728.792 292.19H731.012C730.992 292.03 730.912 291.29 730.912 290.41V277.71ZM749.285 280.27V278.01H737.665V280.27H742.265V292.19H744.665V280.27H749.285ZM750.778 286.25C750.858 285.21 751.698 284.09 753.158 284.09C754.758 284.09 755.518 285.11 755.558 286.25H750.778ZM755.818 288.79C755.498 289.75 754.778 290.49 753.378 290.49C751.938 290.49 750.778 289.43 750.718 287.95H757.838C757.858 287.91 757.898 287.59 757.898 287.21C757.898 284.13 756.138 282.15 753.138 282.15C750.678 282.15 748.398 284.19 748.398 287.27C748.398 290.57 750.738 292.49 753.378 292.49C755.718 292.49 757.258 291.11 757.778 289.41L755.818 288.79ZM759.256 289.55C759.376 290.65 760.456 292.49 763.276 292.49C765.756 292.49 766.956 290.85 766.956 289.37C766.956 287.93 765.996 286.81 764.156 286.41L762.676 286.11C762.076 285.99 761.696 285.61 761.696 285.09C761.696 284.49 762.276 283.97 763.096 283.97C764.396 283.97 764.816 284.87 764.896 285.43L766.856 284.87C766.696 283.91 765.816 282.15 763.096 282.15C761.076 282.15 759.516 283.59 759.516 285.29C759.516 286.63 760.416 287.75 762.136 288.13L763.576 288.45C764.356 288.61 764.716 289.01 764.716 289.53C764.716 290.13 764.216 290.65 763.256 290.65C762.016 290.65 761.356 289.87 761.276 288.99L759.256 289.55ZM772.196 279.47H770.096V280.93C770.096 281.79 769.636 282.45 768.596 282.45H768.096V284.51H769.896V289.41C769.896 291.23 771.016 292.31 772.816 292.31C773.656 292.31 774.096 292.15 774.236 292.09V290.17C774.136 290.19 773.756 290.25 773.436 290.25C772.576 290.25 772.196 289.89 772.196 289.03V284.51H774.216V282.45H772.196V279.47ZM778.9 292.19V282.45H776.6V292.19H778.9ZM776.24 279.03C776.24 279.87 776.92 280.53 777.74 280.53C778.58 280.53 779.26 279.87 779.26 279.03C779.26 278.19 778.58 277.51 777.74 277.51C776.92 277.51 776.24 278.19 776.24 279.03ZM784.213 286.57C784.213 285.29 784.913 284.27 786.233 284.27C787.693 284.27 788.233 285.23 788.233 286.43V292.19H790.553V286.03C790.553 283.89 789.413 282.17 787.033 282.17C785.953 282.17 784.793 282.63 784.153 283.75V282.45H781.893V292.19H784.213V286.57ZM792.677 292.73C792.937 294.69 794.737 296.29 797.317 296.29C800.977 296.29 802.317 293.87 802.317 291.27V282.45H800.077V283.69C799.657 282.89 798.717 282.27 797.197 282.27C794.517 282.27 792.697 284.41 792.697 287.01C792.697 289.75 794.597 291.75 797.197 291.75C798.617 291.75 799.597 291.09 800.017 290.33V291.35C800.017 293.33 799.097 294.27 797.257 294.27C795.917 294.27 794.977 293.37 794.817 292.17L792.677 292.73ZM797.577 289.77C796.057 289.77 795.037 288.71 795.037 287.01C795.037 285.35 796.097 284.27 797.577 284.27C799.017 284.27 800.077 285.35 800.077 287.01C800.077 288.69 799.057 289.77 797.577 289.77Z" fill="#101010"/>
<path d="M443.57 193.8V184.02H446.11C448.57 184.02 450.59 185.62 450.59 188.94C450.59 192.22 448.55 193.8 446.09 193.8H443.57ZM446.17 196C450.01 196 453.09 193.48 453.09 188.94C453.09 184.38 450.05 181.82 446.19 181.82H441.17V196H446.17ZM454.804 193.36C454.804 194.9 456.064 196.3 458.104 196.3C459.684 196.3 460.644 195.5 461.104 194.76C461.104 195.54 461.184 195.94 461.204 196H463.364C463.344 195.9 463.244 195.32 463.244 194.44V189.6C463.244 187.66 462.104 185.96 459.104 185.96C456.704 185.96 455.184 187.46 455.004 189.14L457.124 189.62C457.224 188.64 457.904 187.86 459.124 187.86C460.404 187.86 460.964 188.52 460.964 189.34C460.964 189.68 460.804 189.96 460.244 190.04L457.744 190.42C456.084 190.66 454.804 191.62 454.804 193.36ZM458.544 194.48C457.624 194.48 457.124 193.88 457.124 193.22C457.124 192.42 457.704 192.02 458.424 191.9L460.964 191.52V191.96C460.964 193.86 459.844 194.48 458.544 194.48ZM468.774 199.94L474.974 186.26H472.514L469.894 192.42L467.094 186.26H464.474L468.634 194.84L466.294 199.94H468.774ZM480.794 193.16H487.034V196H489.394V193.16H491.574V191.04H489.394V183.04H486.314L480.794 190.56V193.16ZM487.034 191.04H482.954L487.034 185.46V191.04ZM502.377 191.18V189.12H496.737V191.18H502.377ZM507.884 192.42C508.044 194.46 509.964 196.32 512.764 196.32C515.764 196.32 517.644 194.28 517.644 191.84C517.644 189.12 515.784 187.52 513.204 187.52C512.284 187.52 511.284 187.84 510.724 188.42L511.524 185.14H517.004V183.04H509.904L508.304 189.58L510.564 190.4C511.024 189.88 511.804 189.5 512.724 189.5C514.044 189.5 515.224 190.3 515.224 191.9C515.224 193.34 514.124 194.26 512.764 194.26C511.264 194.26 510.244 193.22 510.144 191.84L507.884 192.42Z" fill="#797979"/>
<path d="M335.546 219.19V216.91H329.046V205.01H326.646V219.19H335.546ZM341.78 217.41C340.36 217.41 339.06 216.33 339.06 214.31C339.06 212.29 340.36 211.25 341.78 211.25C343.22 211.25 344.5 212.29 344.5 214.31C344.5 216.35 343.22 217.41 341.78 217.41ZM341.78 209.15C338.88 209.15 336.74 211.33 336.74 214.31C336.74 217.31 338.88 219.49 341.78 219.49C344.7 219.49 346.84 217.31 346.84 214.31C346.84 211.33 344.7 209.15 341.78 209.15ZM354.368 209.45L352.068 216.19L350.088 209.45H347.608L350.768 219.19H353.148L355.508 212.19L357.928 219.19H360.248L363.368 209.45H361.008L359.068 216.19L356.768 209.45H354.368ZM370.04 214.37V212.31H364.4V214.37H370.04ZM375.042 219.19V213.47H380.802V211.25H375.042V207.27H381.462V205.01H372.642V219.19H375.042ZM385.816 219.19V209.45H383.516V219.19H385.816ZM383.156 206.03C383.156 206.87 383.836 207.53 384.656 207.53C385.496 207.53 386.176 206.87 386.176 206.03C386.176 205.19 385.496 204.51 384.656 204.51C383.836 204.51 383.156 205.19 383.156 206.03ZM388.609 217.73C388.609 218.65 389.249 219.25 390.129 219.25C390.389 219.25 390.529 219.19 390.609 219.15C390.589 220.19 389.749 221.11 388.829 221.31V222.49C390.189 222.31 392.089 221.13 392.089 218.33C392.089 217.05 391.329 216.21 390.269 216.21C389.329 216.21 388.609 216.89 388.609 217.73ZM409.364 208.33C409.044 206.75 407.744 204.71 404.404 204.71C401.764 204.71 399.584 206.67 399.584 209.05C399.584 211.17 401.024 212.59 403.184 213.03L405.184 213.45C406.404 213.71 407.084 214.45 407.084 215.37C407.084 216.47 406.204 217.33 404.504 217.33C402.464 217.33 401.404 215.97 401.264 214.49L399.024 215.13C399.244 217.17 400.904 219.49 404.504 219.49C407.744 219.49 409.524 217.39 409.524 215.19C409.524 213.19 408.184 211.61 405.684 211.11L403.644 210.69C402.544 210.45 401.984 209.77 401.984 208.87C401.984 207.79 402.984 206.83 404.424 206.83C406.324 206.83 407.064 208.13 407.204 209.01L409.364 208.33ZM414.718 206.47H412.618V207.93C412.618 208.79 412.158 209.45 411.118 209.45H410.618V211.51H412.418V216.41C412.418 218.23 413.538 219.31 415.338 219.31C416.178 219.31 416.618 219.15 416.758 219.09V217.17C416.658 217.19 416.278 217.25 415.958 217.25C415.098 217.25 414.718 216.89 414.718 216.03V211.51H416.738V209.45H414.718V206.47ZM422.238 223.13L428.438 209.45H425.978L423.358 215.61L420.558 209.45H417.938L422.098 218.03L419.758 223.13H422.238ZM432.457 219.19V204.71H430.137V219.19H432.457ZM437.07 213.25C437.15 212.21 437.99 211.09 439.45 211.09C441.05 211.09 441.81 212.11 441.85 213.25H437.07ZM442.11 215.79C441.79 216.75 441.07 217.49 439.67 217.49C438.23 217.49 437.07 216.43 437.01 214.95H444.13C444.15 214.91 444.19 214.59 444.19 214.21C444.19 211.13 442.43 209.15 439.43 209.15C436.97 209.15 434.69 211.19 434.69 214.27C434.69 217.57 437.03 219.49 439.67 219.49C442.01 219.49 443.55 218.11 444.07 216.41L442.11 215.79ZM450.667 219.73C450.927 221.69 452.727 223.29 455.307 223.29C458.967 223.29 460.307 220.87 460.307 218.27V209.45H458.067V210.69C457.647 209.89 456.707 209.27 455.187 209.27C452.507 209.27 450.687 211.41 450.687 214.01C450.687 216.75 452.587 218.75 455.187 218.75C456.607 218.75 457.587 218.09 458.007 217.33V218.35C458.007 220.33 457.087 221.27 455.247 221.27C453.907 221.27 452.967 220.37 452.807 219.17L450.667 219.73ZM455.567 216.77C454.047 216.77 453.027 215.71 453.027 214.01C453.027 212.35 454.087 211.27 455.567 211.27C457.007 211.27 458.067 212.35 458.067 214.01C458.067 215.69 457.047 216.77 455.567 216.77ZM469.387 218.11C469.387 218.51 469.427 218.97 469.467 219.19H471.687C471.647 218.83 471.587 218.21 471.587 217.41V209.45H469.267V215.21C469.267 216.49 468.567 217.39 467.227 217.39C465.827 217.39 465.267 216.37 465.267 215.17V209.45H462.947V215.59C462.947 217.75 464.307 219.47 466.627 219.47C467.767 219.47 468.907 218.99 469.387 218.11ZM476.89 219.19V209.45H474.59V219.19H476.89ZM474.23 206.03C474.23 206.87 474.91 207.53 475.73 207.53C476.57 207.53 477.25 206.87 477.25 206.03C477.25 205.19 476.57 204.51 475.73 204.51C474.91 204.51 474.23 205.19 474.23 206.03ZM481.443 214.29C481.443 212.43 482.563 211.25 484.083 211.25C485.603 211.25 486.643 212.41 486.643 214.27C486.643 216.13 485.583 217.39 484.063 217.39C482.483 217.39 481.443 216.15 481.443 214.29ZM488.883 204.71H486.623V210.59C486.323 209.97 485.463 209.19 483.763 209.19C481.023 209.19 479.123 211.49 479.123 214.29C479.123 217.23 481.003 219.43 483.803 219.43C485.183 219.43 486.203 218.75 486.663 217.93C486.663 218.33 486.723 218.97 486.763 219.19H488.983C488.963 219.03 488.883 218.29 488.883 217.41V204.71ZM493.534 213.25C493.614 212.21 494.454 211.09 495.914 211.09C497.514 211.09 498.274 212.11 498.314 213.25H493.534ZM498.574 215.79C498.254 216.75 497.534 217.49 496.134 217.49C494.694 217.49 493.534 216.43 493.474 214.95H500.594C500.614 214.91 500.654 214.59 500.654 214.21C500.654 211.13 498.894 209.15 495.894 209.15C493.434 209.15 491.154 211.19 491.154 214.27C491.154 217.57 493.494 219.49 496.134 219.49C498.474 219.49 500.014 218.11 500.534 216.41L498.574 215.79ZM507.232 216.55C507.232 218.09 508.492 219.49 510.532 219.49C512.112 219.49 513.072 218.69 513.532 217.95C513.532 218.73 513.612 219.13 513.632 219.19H515.792C515.772 219.09 515.672 218.51 515.672 217.63V212.79C515.672 210.85 514.532 209.15 511.532 209.15C509.132 209.15 507.612 210.65 507.432 212.33L509.552 212.81C509.652 211.83 510.332 211.05 511.552 211.05C512.832 211.05 513.392 211.71 513.392 212.53C513.392 212.87 513.232 213.15 512.672 213.23L510.172 213.61C508.512 213.85 507.232 214.81 507.232 216.55ZM510.972 217.67C510.052 217.67 509.552 217.07 509.552 216.41C509.552 215.61 510.132 215.21 510.852 215.09L513.392 214.71V215.15C513.392 217.05 512.272 217.67 510.972 217.67ZM520.797 213.57C520.797 212.29 521.497 211.27 522.817 211.27C524.277 211.27 524.817 212.23 524.817 213.43V219.19H527.137V213.03C527.137 210.89 525.997 209.17 523.617 209.17C522.537 209.17 521.377 209.63 520.737 210.75V209.45H518.477V219.19H520.797V213.57ZM531.521 214.29C531.521 212.43 532.641 211.25 534.161 211.25C535.681 211.25 536.721 212.41 536.721 214.27C536.721 216.13 535.661 217.39 534.141 217.39C532.561 217.39 531.521 216.15 531.521 214.29ZM538.961 204.71H536.701V210.59C536.401 209.97 535.541 209.19 533.841 209.19C531.101 209.19 529.201 211.49 529.201 214.29C529.201 217.23 531.081 219.43 533.881 219.43C535.261 219.43 536.281 218.75 536.741 217.93C536.741 218.33 536.801 218.97 536.841 219.19H539.061C539.041 219.03 538.961 218.29 538.961 217.41V204.71ZM553.453 219.49C557.073 219.49 559.233 217.19 559.873 214.79L557.673 214.07C557.193 215.67 555.833 217.19 553.453 217.19C551.033 217.19 548.753 215.43 548.753 212.11C548.753 208.67 551.093 206.97 553.433 206.97C555.813 206.97 557.133 208.35 557.553 210.07L559.813 209.31C559.173 206.83 557.033 204.71 553.433 204.71C549.753 204.71 546.293 207.49 546.293 212.11C546.293 216.73 549.633 219.49 553.453 219.49ZM566.038 217.41C564.618 217.41 563.318 216.33 563.318 214.31C563.318 212.29 564.618 211.25 566.038 211.25C567.478 211.25 568.758 212.29 568.758 214.31C568.758 216.35 567.478 217.41 566.038 217.41ZM566.038 209.15C563.138 209.15 560.998 211.33 560.998 214.31C560.998 217.31 563.138 219.49 566.038 219.49C568.958 219.49 571.098 217.31 571.098 214.31C571.098 211.33 568.958 209.15 566.038 209.15ZM575.64 219.19V213.41C575.64 212.17 576.42 211.25 577.66 211.25C578.98 211.25 579.54 212.13 579.54 213.25V219.19H581.82V213.41C581.82 212.21 582.62 211.25 583.84 211.25C585.14 211.25 585.72 212.11 585.72 213.25V219.19H587.96V212.87C587.96 210.29 586.28 209.17 584.52 209.17C583.26 209.17 582.12 209.61 581.36 210.89C580.84 209.75 579.72 209.17 578.44 209.17C577.34 209.17 576.12 209.69 575.56 210.69V209.45H573.34V219.19H575.64ZM593.101 222.99V218.09C593.601 218.83 594.661 219.43 596.061 219.43C598.861 219.43 600.641 217.23 600.641 214.31C600.641 211.43 599.021 209.23 596.141 209.23C594.641 209.23 593.521 209.93 593.041 210.77V209.45H590.801V222.99H593.101ZM598.321 214.31C598.321 216.17 597.241 217.37 595.701 217.37C594.181 217.37 593.081 216.17 593.081 214.31C593.081 212.49 594.181 211.29 595.701 211.29C597.261 211.29 598.321 212.49 598.321 214.31ZM607.151 217.41C605.731 217.41 604.431 216.33 604.431 214.31C604.431 212.29 605.731 211.25 607.151 211.25C608.591 211.25 609.871 212.29 609.871 214.31C609.871 216.35 608.591 217.41 607.151 217.41ZM607.151 209.15C604.251 209.15 602.111 211.33 602.111 214.31C602.111 217.31 604.251 219.49 607.151 219.49C610.071 219.49 612.211 217.31 612.211 214.31C612.211 211.33 610.071 209.15 607.151 209.15ZM616.773 213.57C616.773 212.29 617.473 211.27 618.793 211.27C620.253 211.27 620.793 212.23 620.793 213.43V219.19H623.113V213.03C623.113 210.89 621.973 209.17 619.593 209.17C618.513 209.17 617.353 209.63 616.713 210.75V209.45H614.453V219.19H616.773V213.57ZM627.558 213.25C627.638 212.21 628.478 211.09 629.938 211.09C631.538 211.09 632.298 212.11 632.338 213.25H627.558ZM632.598 215.79C632.278 216.75 631.558 217.49 630.158 217.49C628.718 217.49 627.558 216.43 627.498 214.95H634.618C634.638 214.91 634.678 214.59 634.678 214.21C634.678 211.13 632.918 209.15 629.918 209.15C627.458 209.15 625.178 211.19 625.178 214.27C625.178 217.57 627.518 219.49 630.158 219.49C632.498 219.49 634.038 218.11 634.558 216.41L632.598 215.79ZM639.215 213.57C639.215 212.29 639.915 211.27 641.235 211.27C642.695 211.27 643.235 212.23 643.235 213.43V219.19H645.555V213.03C645.555 210.89 644.415 209.17 642.035 209.17C640.955 209.17 639.795 209.63 639.155 210.75V209.45H636.895V219.19H639.215V213.57ZM651.319 206.47H649.219V207.93C649.219 208.79 648.759 209.45 647.719 209.45H647.219V211.51H649.019V216.41C649.019 218.23 650.139 219.31 651.939 219.31C652.779 219.31 653.219 219.15 653.359 219.09V217.17C653.259 217.19 652.879 217.25 652.559 217.25C651.699 217.25 651.319 216.89 651.319 216.03V211.51H653.339V209.45H651.319V206.47ZM655.019 216.55C655.139 217.65 656.219 219.49 659.039 219.49C661.519 219.49 662.719 217.85 662.719 216.37C662.719 214.93 661.759 213.81 659.919 213.41L658.439 213.11C657.839 212.99 657.459 212.61 657.459 212.09C657.459 211.49 658.039 210.97 658.859 210.97C660.159 210.97 660.579 211.87 660.659 212.43L662.619 211.87C662.459 210.91 661.579 209.15 658.859 209.15C656.839 209.15 655.279 210.59 655.279 212.29C655.279 213.63 656.179 214.75 657.899 215.13L659.339 215.45C660.119 215.61 660.479 216.01 660.479 216.53C660.479 217.13 659.979 217.65 659.019 217.65C657.779 217.65 657.119 216.87 657.039 215.99L655.019 216.55Z" fill="#101010"/>
<path d="M319.456 125.8V116.02H321.996C324.456 116.02 326.476 117.62 326.476 120.94C326.476 124.22 324.436 125.8 321.976 125.8H319.456ZM322.056 128C325.896 128 328.976 125.48 328.976 120.94C328.976 116.38 325.936 113.82 322.076 113.82H317.056V128H322.056ZM330.689 125.36C330.689 126.9 331.949 128.3 333.989 128.3C335.569 128.3 336.529 127.5 336.989 126.76C336.989 127.54 337.069 127.94 337.089 128H339.249C339.229 127.9 339.129 127.32 339.129 126.44V121.6C339.129 119.66 337.989 117.96 334.989 117.96C332.589 117.96 331.069 119.46 330.889 121.14L333.009 121.62C333.109 120.64 333.789 119.86 335.009 119.86C336.289 119.86 336.849 120.52 336.849 121.34C336.849 121.68 336.689 121.96 336.129 122.04L333.629 122.42C331.969 122.66 330.689 123.62 330.689 125.36ZM334.429 126.48C333.509 126.48 333.009 125.88 333.009 125.22C333.009 124.42 333.589 124.02 334.309 123.9L336.849 123.52V123.96C336.849 125.86 335.729 126.48 334.429 126.48ZM344.659 131.94L350.859 118.26H348.399L345.779 124.42L342.979 118.26H340.359L344.519 126.84L342.179 131.94H344.659ZM362.08 128V115.04H360C359.72 116.4 358.44 117.44 356.58 117.48V119.12H359.72V128H362.08ZM374.044 123.18V121.12H368.404V123.18H374.044ZM378.993 122.12C379.193 122.02 379.593 121.9 380.213 121.9C381.313 121.9 382.513 122.54 382.513 124.04C382.513 125.22 381.633 126.24 380.053 126.24C378.613 126.24 377.533 125.22 377.473 123.72L375.133 124.2C375.293 126.36 377.073 128.3 380.073 128.3C383.153 128.3 384.933 126.28 384.933 124.06C384.933 121.56 382.993 120.16 381.053 120.12L384.573 117.04V115.04H375.573V117.14H381.473L377.893 120.34L378.993 122.12Z" fill="#797979"/>
<path d="M128.429 151.49C131.409 151.49 133.729 149.67 133.729 146.25V137.01H131.329V146.11C131.329 148.11 130.249 149.21 128.429 149.21C126.629 149.21 125.529 148.11 125.529 146.11V137.01H123.149V146.25C123.149 149.67 125.469 151.49 128.429 151.49ZM135.862 148.55C135.982 149.65 137.062 151.49 139.882 151.49C142.362 151.49 143.562 149.85 143.562 148.37C143.562 146.93 142.602 145.81 140.762 145.41L139.282 145.11C138.682 144.99 138.302 144.61 138.302 144.09C138.302 143.49 138.882 142.97 139.702 142.97C141.002 142.97 141.422 143.87 141.502 144.43L143.462 143.87C143.302 142.91 142.422 141.15 139.702 141.15C137.682 141.15 136.122 142.59 136.122 144.29C136.122 145.63 137.022 146.75 138.742 147.13L140.182 147.45C140.962 147.61 141.322 148.01 141.322 148.53C141.322 149.13 140.822 149.65 139.862 149.65C138.622 149.65 137.962 148.87 137.882 147.99L135.862 148.55ZM147.425 145.25C147.505 144.21 148.345 143.09 149.805 143.09C151.405 143.09 152.165 144.11 152.205 145.25H147.425ZM152.465 147.79C152.145 148.75 151.425 149.49 150.025 149.49C148.585 149.49 147.425 148.43 147.365 146.95H154.485C154.505 146.91 154.545 146.59 154.545 146.21C154.545 143.13 152.785 141.15 149.785 141.15C147.325 141.15 145.045 143.19 145.045 146.27C145.045 149.57 147.385 151.49 150.025 151.49C152.365 151.49 153.905 150.11 154.425 148.41L152.465 147.79ZM162.462 141.39C162.362 141.37 162.122 141.33 161.842 141.33C160.562 141.33 159.482 141.95 159.022 143.01V141.45H156.762V151.19H159.082V146.55C159.082 144.73 159.902 143.69 161.702 143.69C161.942 143.69 162.202 143.71 162.462 143.75V141.39ZM175.02 141.39C174.92 141.37 174.68 141.33 174.4 141.33C173.12 141.33 172.04 141.95 171.58 143.01V141.45H169.32V151.19H171.64V146.55C171.64 144.73 172.46 143.69 174.26 143.69C174.5 143.69 174.76 143.71 175.02 143.75V141.39ZM178.479 145.25C178.559 144.21 179.399 143.09 180.859 143.09C182.459 143.09 183.219 144.11 183.259 145.25H178.479ZM183.519 147.79C183.199 148.75 182.479 149.49 181.079 149.49C179.639 149.49 178.479 148.43 178.419 146.95H185.539C185.559 146.91 185.599 146.59 185.599 146.21C185.599 143.13 183.839 141.15 180.839 141.15C178.379 141.15 176.099 143.19 176.099 146.27C176.099 149.57 178.439 151.49 181.079 151.49C183.419 151.49 184.959 150.11 185.479 148.41L183.519 147.79ZM186.956 148.55C187.076 149.65 188.156 151.49 190.976 151.49C193.456 151.49 194.656 149.85 194.656 148.37C194.656 146.93 193.696 145.81 191.856 145.41L190.376 145.11C189.776 144.99 189.396 144.61 189.396 144.09C189.396 143.49 189.976 142.97 190.796 142.97C192.096 142.97 192.516 143.87 192.596 144.43L194.556 143.87C194.396 142.91 193.516 141.15 190.796 141.15C188.776 141.15 187.216 142.59 187.216 144.29C187.216 145.63 188.116 146.75 189.836 147.13L191.276 147.45C192.056 147.61 192.416 148.01 192.416 148.53C192.416 149.13 191.916 149.65 190.956 149.65C189.716 149.65 189.056 148.87 188.976 147.99L186.956 148.55ZM198.518 145.25C198.598 144.21 199.438 143.09 200.898 143.09C202.498 143.09 203.258 144.11 203.298 145.25H198.518ZM203.558 147.79C203.238 148.75 202.518 149.49 201.118 149.49C199.678 149.49 198.518 148.43 198.458 146.95H205.578C205.598 146.91 205.638 146.59 205.638 146.21C205.638 143.13 203.878 141.15 200.878 141.15C198.418 141.15 196.138 143.19 196.138 146.27C196.138 149.57 198.478 151.49 201.118 151.49C203.458 151.49 204.998 150.11 205.518 148.41L203.558 147.79ZM207.255 148.55C207.255 150.09 208.515 151.49 210.555 151.49C212.135 151.49 213.095 150.69 213.555 149.95C213.555 150.73 213.635 151.13 213.655 151.19H215.815C215.795 151.09 215.695 150.51 215.695 149.63V144.79C215.695 142.85 214.555 141.15 211.555 141.15C209.155 141.15 207.635 142.65 207.455 144.33L209.575 144.81C209.675 143.83 210.355 143.05 211.575 143.05C212.855 143.05 213.415 143.71 213.415 144.53C213.415 144.87 213.255 145.15 212.695 145.23L210.195 145.61C208.535 145.85 207.255 146.81 207.255 148.55ZM210.995 149.67C210.075 149.67 209.575 149.07 209.575 148.41C209.575 147.61 210.155 147.21 210.875 147.09L213.415 146.71V147.15C213.415 149.05 212.295 149.67 210.995 149.67ZM224.2 141.39C224.1 141.37 223.86 141.33 223.58 141.33C222.3 141.33 221.22 141.95 220.76 143.01V141.45H218.5V151.19H220.82V146.55C220.82 144.73 221.64 143.69 223.44 143.69C223.68 143.69 223.94 143.71 224.2 143.75V141.39ZM230.279 143.29C231.759 143.29 232.419 144.25 232.639 145.11L234.719 144.35C234.319 142.79 232.879 141.15 230.259 141.15C227.459 141.15 225.279 143.31 225.279 146.31C225.279 149.27 227.459 151.49 230.319 151.49C232.879 151.49 234.339 149.83 234.799 148.31L232.759 147.57C232.539 148.31 231.839 149.37 230.319 149.37C228.859 149.37 227.599 148.27 227.599 146.31C227.599 144.35 228.859 143.29 230.279 143.29ZM239.179 145.47C239.219 144.23 239.919 143.27 241.199 143.27C242.659 143.27 243.199 144.23 243.199 145.43V151.19H245.519V145.03C245.519 142.89 244.359 141.17 241.959 141.17C240.939 141.17 239.839 141.53 239.179 142.39V136.71H236.859V151.19H239.179V145.47ZM248.144 149.73C248.144 150.65 248.784 151.25 249.664 151.25C249.924 151.25 250.064 151.19 250.144 151.15C250.124 152.19 249.284 153.11 248.364 153.31V154.49C249.724 154.31 251.624 153.13 251.624 150.33C251.624 149.05 250.864 148.21 249.804 148.21C248.864 148.21 248.144 148.89 248.144 149.73ZM264.699 151.49C267.679 151.49 269.999 149.67 269.999 146.25V137.01H267.599V146.11C267.599 148.11 266.519 149.21 264.699 149.21C262.899 149.21 261.799 148.11 261.799 146.11V137.01H259.419V146.25C259.419 149.67 261.739 151.49 264.699 151.49ZM272.132 148.55C272.252 149.65 273.332 151.49 276.152 151.49C278.632 151.49 279.832 149.85 279.832 148.37C279.832 146.93 278.872 145.81 277.032 145.41L275.552 145.11C274.952 144.99 274.572 144.61 274.572 144.09C274.572 143.49 275.152 142.97 275.972 142.97C277.272 142.97 277.692 143.87 277.772 144.43L279.732 143.87C279.572 142.91 278.692 141.15 275.972 141.15C273.952 141.15 272.392 142.59 272.392 144.29C272.392 145.63 273.292 146.75 275.012 147.13L276.452 147.45C277.232 147.61 277.592 148.01 277.592 148.53C277.592 149.13 277.092 149.65 276.132 149.65C274.892 149.65 274.232 148.87 274.152 147.99L272.132 148.55ZM283.694 145.25C283.774 144.21 284.614 143.09 286.074 143.09C287.674 143.09 288.434 144.11 288.474 145.25H283.694ZM288.734 147.79C288.414 148.75 287.694 149.49 286.294 149.49C284.854 149.49 283.694 148.43 283.634 146.95H290.754C290.774 146.91 290.814 146.59 290.814 146.21C290.814 143.13 289.054 141.15 286.054 141.15C283.594 141.15 281.314 143.19 281.314 146.27C281.314 149.57 283.654 151.49 286.294 151.49C288.634 151.49 290.174 150.11 290.694 148.41L288.734 147.79ZM298.731 141.39C298.631 141.37 298.391 141.33 298.111 141.33C296.831 141.33 295.751 141.95 295.291 143.01V141.45H293.031V151.19H295.351V146.55C295.351 144.73 296.171 143.69 297.971 143.69C298.211 143.69 298.471 143.71 298.731 143.75V141.39ZM307.89 154.99V150.09C308.39 150.83 309.45 151.43 310.85 151.43C313.65 151.43 315.43 149.23 315.43 146.31C315.43 143.43 313.81 141.23 310.93 141.23C309.43 141.23 308.31 141.93 307.83 142.77V141.45H305.59V154.99H307.89ZM313.11 146.31C313.11 148.17 312.03 149.37 310.49 149.37C308.97 149.37 307.87 148.17 307.87 146.31C307.87 144.49 308.97 143.29 310.49 143.29C312.05 143.29 313.11 144.49 313.11 146.31ZM319.28 145.25C319.36 144.21 320.2 143.09 321.66 143.09C323.26 143.09 324.02 144.11 324.06 145.25H319.28ZM324.32 147.79C324 148.75 323.28 149.49 321.88 149.49C320.44 149.49 319.28 148.43 319.22 146.95H326.34C326.36 146.91 326.4 146.59 326.4 146.21C326.4 143.13 324.64 141.15 321.64 141.15C319.18 141.15 316.9 143.19 316.9 146.27C316.9 149.57 319.24 151.49 321.88 151.49C324.22 151.49 325.76 150.11 326.28 148.41L324.32 147.79ZM334.317 141.39C334.217 141.37 333.977 141.33 333.697 141.33C332.417 141.33 331.337 141.95 330.877 143.01V141.45H328.617V151.19H330.937V146.55C330.937 144.73 331.757 143.69 333.557 143.69C333.797 143.69 334.057 143.71 334.317 143.75V141.39ZM335.413 148.55C335.533 149.65 336.613 151.49 339.433 151.49C341.913 151.49 343.113 149.85 343.113 148.37C343.113 146.93 342.153 145.81 340.313 145.41L338.833 145.11C338.233 144.99 337.853 144.61 337.853 144.09C337.853 143.49 338.433 142.97 339.253 142.97C340.553 142.97 340.973 143.87 341.053 144.43L343.013 143.87C342.853 142.91 341.973 141.15 339.253 141.15C337.233 141.15 335.673 142.59 335.673 144.29C335.673 145.63 336.573 146.75 338.293 147.13L339.733 147.45C340.513 147.61 340.873 148.01 340.873 148.53C340.873 149.13 340.373 149.65 339.413 149.65C338.173 149.65 337.513 148.87 337.433 147.99L335.413 148.55ZM349.635 149.41C348.215 149.41 346.915 148.33 346.915 146.31C346.915 144.29 348.215 143.25 349.635 143.25C351.075 143.25 352.355 144.29 352.355 146.31C352.355 148.35 351.075 149.41 349.635 149.41ZM349.635 141.15C346.735 141.15 344.595 143.33 344.595 146.31C344.595 149.31 346.735 151.49 349.635 151.49C352.555 151.49 354.695 149.31 354.695 146.31C354.695 143.33 352.555 141.15 349.635 141.15ZM359.257 145.57C359.257 144.29 359.957 143.27 361.277 143.27C362.737 143.27 363.277 144.23 363.277 145.43V151.19H365.597V145.03C365.597 142.89 364.457 141.17 362.077 141.17C360.997 141.17 359.837 141.63 359.197 142.75V141.45H356.937V151.19H359.257V145.57ZM367.822 148.55C367.822 150.09 369.082 151.49 371.122 151.49C372.702 151.49 373.662 150.69 374.122 149.95C374.122 150.73 374.202 151.13 374.222 151.19H376.382C376.362 151.09 376.262 150.51 376.262 149.63V144.79C376.262 142.85 375.122 141.15 372.122 141.15C369.722 141.15 368.202 142.65 368.022 144.33L370.142 144.81C370.242 143.83 370.922 143.05 372.142 143.05C373.422 143.05 373.982 143.71 373.982 144.53C373.982 144.87 373.822 145.15 373.262 145.23L370.762 145.61C369.102 145.85 367.822 146.81 367.822 148.55ZM371.562 149.67C370.642 149.67 370.142 149.07 370.142 148.41C370.142 147.61 370.722 147.21 371.442 147.09L373.982 146.71V147.15C373.982 149.05 372.862 149.67 371.562 149.67ZM378.866 149.73C378.866 150.65 379.506 151.25 380.386 151.25C380.646 151.25 380.786 151.19 380.866 151.15C380.846 152.19 380.006 153.11 379.086 153.31V154.49C380.446 154.31 382.346 153.13 382.346 150.33C382.346 149.05 381.586 148.21 380.526 148.21C379.586 148.21 378.866 148.89 378.866 149.73ZM399.621 140.33C399.301 138.75 398.001 136.71 394.661 136.71C392.021 136.71 389.841 138.67 389.841 141.05C389.841 143.17 391.281 144.59 393.441 145.03L395.441 145.45C396.661 145.71 397.341 146.45 397.341 147.37C397.341 148.47 396.461 149.33 394.761 149.33C392.721 149.33 391.661 147.97 391.521 146.49L389.281 147.13C389.501 149.17 391.161 151.49 394.761 151.49C398.001 151.49 399.781 149.39 399.781 147.19C399.781 145.19 398.441 143.61 395.941 143.11L393.901 142.69C392.801 142.45 392.241 141.77 392.241 140.87C392.241 139.79 393.241 138.83 394.681 138.83C396.581 138.83 397.321 140.13 397.461 141.01L399.621 140.33ZM404.315 151.19V141.45H402.015V151.19H404.315ZM401.655 138.03C401.655 138.87 402.335 139.53 403.155 139.53C403.995 139.53 404.675 138.87 404.675 138.03C404.675 137.19 403.995 136.51 403.155 136.51C402.335 136.51 401.655 137.19 401.655 138.03ZM410.248 138.47H408.148V139.93C408.148 140.79 407.688 141.45 406.648 141.45H406.148V143.51H407.948V148.41C407.948 150.23 409.068 151.31 410.868 151.31C411.708 151.31 412.148 151.15 412.288 151.09V149.17C412.188 149.19 411.808 149.25 411.488 149.25C410.628 149.25 410.248 148.89 410.248 148.03V143.51H412.268V141.45H410.248V138.47ZM416.175 145.25C416.255 144.21 417.095 143.09 418.555 143.09C420.155 143.09 420.915 144.11 420.955 145.25H416.175ZM421.215 147.79C420.895 148.75 420.175 149.49 418.775 149.49C417.335 149.49 416.175 148.43 416.115 146.95H423.235C423.255 146.91 423.295 146.59 423.295 146.21C423.295 143.13 421.535 141.15 418.535 141.15C416.075 141.15 413.795 143.19 413.795 146.27C413.795 149.57 416.135 151.49 418.775 151.49C421.115 151.49 422.655 150.11 423.175 148.41L421.215 147.79ZM427.812 151.19V145.41C427.812 144.17 428.592 143.25 429.832 143.25C431.152 143.25 431.712 144.13 431.712 145.25V151.19H433.992V145.41C433.992 144.21 434.792 143.25 436.012 143.25C437.312 143.25 437.892 144.11 437.892 145.25V151.19H440.132V144.87C440.132 142.29 438.452 141.17 436.692 141.17C435.432 141.17 434.292 141.61 433.532 142.89C433.012 141.75 431.892 141.17 430.612 141.17C429.512 141.17 428.292 141.69 427.732 142.69V141.45H425.512V151.19H427.812ZM442.372 148.55C442.372 150.09 443.632 151.49 445.672 151.49C447.252 151.49 448.212 150.69 448.672 149.95C448.672 150.73 448.752 151.13 448.772 151.19H450.932C450.912 151.09 450.812 150.51 450.812 149.63V144.79C450.812 142.85 449.672 141.15 446.672 141.15C444.272 141.15 442.752 142.65 442.572 144.33L444.692 144.81C444.792 143.83 445.472 143.05 446.692 143.05C447.972 143.05 448.532 143.71 448.532 144.53C448.532 144.87 448.372 145.15 447.812 145.23L445.312 145.61C443.652 145.85 442.372 146.81 442.372 148.55ZM446.112 149.67C445.192 149.67 444.692 149.07 444.692 148.41C444.692 147.61 445.272 147.21 445.992 147.09L448.532 146.71V147.15C448.532 149.05 447.412 149.67 446.112 149.67ZM455.917 154.99V150.09C456.417 150.83 457.477 151.43 458.877 151.43C461.677 151.43 463.457 149.23 463.457 146.31C463.457 143.43 461.837 141.23 458.957 141.23C457.457 141.23 456.337 141.93 455.857 142.77V141.45H453.617V154.99H455.917ZM461.137 146.31C461.137 148.17 460.057 149.37 458.517 149.37C456.997 149.37 455.897 148.17 455.897 146.31C455.897 144.49 456.997 143.29 458.517 143.29C460.077 143.29 461.137 144.49 461.137 146.31ZM470.048 148.55C470.048 150.09 471.308 151.49 473.348 151.49C474.928 151.49 475.888 150.69 476.348 149.95C476.348 150.73 476.428 151.13 476.448 151.19H478.608C478.588 151.09 478.488 150.51 478.488 149.63V144.79C478.488 142.85 477.348 141.15 474.348 141.15C471.948 141.15 470.428 142.65 470.248 144.33L472.368 144.81C472.468 143.83 473.148 143.05 474.368 143.05C475.648 143.05 476.208 143.71 476.208 144.53C476.208 144.87 476.048 145.15 475.488 145.23L472.988 145.61C471.328 145.85 470.048 146.81 470.048 148.55ZM473.788 149.67C472.868 149.67 472.368 149.07 472.368 148.41C472.368 147.61 472.948 147.21 473.668 147.09L476.208 146.71V147.15C476.208 149.05 475.088 149.67 473.788 149.67ZM483.613 145.57C483.613 144.29 484.313 143.27 485.633 143.27C487.093 143.27 487.633 144.23 487.633 145.43V151.19H489.953V145.03C489.953 142.89 488.813 141.17 486.433 141.17C485.353 141.17 484.193 141.63 483.553 142.75V141.45H481.293V151.19H483.613V145.57ZM494.337 146.29C494.337 144.43 495.457 143.25 496.977 143.25C498.497 143.25 499.537 144.41 499.537 146.27C499.537 148.13 498.477 149.39 496.957 149.39C495.377 149.39 494.337 148.15 494.337 146.29ZM501.777 136.71H499.517V142.59C499.217 141.97 498.357 141.19 496.657 141.19C493.917 141.19 492.017 143.49 492.017 146.29C492.017 149.23 493.897 151.43 496.697 151.43C498.077 151.43 499.097 150.75 499.557 149.93C499.557 150.33 499.617 150.97 499.657 151.19H501.877C501.857 151.03 501.777 150.29 501.777 149.41V136.71ZM525.569 151.19V137.01H522.309L517.769 147.83L513.169 137.01H509.969V151.19H512.309V140.79L516.689 151.19H518.769L523.189 140.75V151.19H525.569ZM533.014 149.41C531.594 149.41 530.294 148.33 530.294 146.31C530.294 144.29 531.594 143.25 533.014 143.25C534.454 143.25 535.734 144.29 535.734 146.31C535.734 148.35 534.454 149.41 533.014 149.41ZM533.014 141.15C530.114 141.15 527.974 143.33 527.974 146.31C527.974 149.31 530.114 151.49 533.014 151.49C535.934 151.49 538.074 149.31 538.074 146.31C538.074 143.33 535.934 141.15 533.014 141.15ZM544.596 149.41C543.176 149.41 541.876 148.33 541.876 146.31C541.876 144.29 543.176 143.25 544.596 143.25C546.036 143.25 547.316 144.29 547.316 146.31C547.316 148.35 546.036 149.41 544.596 149.41ZM544.596 141.15C541.696 141.15 539.556 143.33 539.556 146.31C539.556 149.31 541.696 151.49 544.596 151.49C547.516 151.49 549.656 149.31 549.656 146.31C549.656 143.33 547.516 141.15 544.596 141.15ZM553.458 146.29C553.458 144.43 554.578 143.25 556.098 143.25C557.618 143.25 558.658 144.41 558.658 146.27C558.658 148.13 557.598 149.39 556.078 149.39C554.498 149.39 553.458 148.15 553.458 146.29ZM560.898 136.71H558.638V142.59C558.338 141.97 557.478 141.19 555.778 141.19C553.038 141.19 551.138 143.49 551.138 146.29C551.138 149.23 553.018 151.43 555.818 151.43C557.198 151.43 558.218 150.75 558.678 149.93C558.678 150.33 558.738 150.97 558.778 151.19H560.998C560.978 151.03 560.898 150.29 560.898 149.41V136.71ZM566.19 151.19V149.89C566.75 150.83 567.81 151.43 569.19 151.43C572.03 151.43 573.77 149.21 573.77 146.27C573.77 143.41 572.19 141.19 569.27 141.19C567.77 141.19 566.65 141.89 566.21 142.65V136.71H563.93V151.19H566.19ZM571.43 146.29C571.43 148.21 570.33 149.37 568.81 149.37C567.33 149.37 566.19 148.21 566.19 146.29C566.19 144.35 567.33 143.25 568.81 143.25C570.35 143.25 571.43 144.35 571.43 146.29ZM580.28 149.41C578.86 149.41 577.56 148.33 577.56 146.31C577.56 144.29 578.86 143.25 580.28 143.25C581.72 143.25 583 144.29 583 146.31C583 148.35 581.72 149.41 580.28 149.41ZM580.28 141.15C577.38 141.15 575.24 143.33 575.24 146.31C575.24 149.31 577.38 151.49 580.28 151.49C583.2 151.49 585.34 149.31 585.34 146.31C585.34 143.33 583.2 141.15 580.28 141.15ZM586.982 148.55C586.982 150.09 588.242 151.49 590.282 151.49C591.862 151.49 592.822 150.69 593.282 149.95C593.282 150.73 593.362 151.13 593.382 151.19H595.542C595.522 151.09 595.422 150.51 595.422 149.63V144.79C595.422 142.85 594.282 141.15 591.282 141.15C588.882 141.15 587.362 142.65 587.182 144.33L589.302 144.81C589.402 143.83 590.082 143.05 591.302 143.05C592.582 143.05 593.142 143.71 593.142 144.53C593.142 144.87 592.982 145.15 592.422 145.23L589.922 145.61C588.262 145.85 586.982 146.81 586.982 148.55ZM590.722 149.67C589.802 149.67 589.302 149.07 589.302 148.41C589.302 147.61 589.882 147.21 590.602 147.09L593.142 146.71V147.15C593.142 149.05 592.022 149.67 590.722 149.67ZM603.926 141.39C603.826 141.37 603.586 141.33 603.306 141.33C602.026 141.33 600.946 141.95 600.486 143.01V141.45H598.226V151.19H600.546V146.55C600.546 144.73 601.366 143.69 603.166 143.69C603.406 143.69 603.666 143.71 603.926 143.75V141.39ZM607.325 146.29C607.325 144.43 608.445 143.25 609.965 143.25C611.485 143.25 612.525 144.41 612.525 146.27C612.525 148.13 611.465 149.39 609.945 149.39C608.365 149.39 607.325 148.15 607.325 146.29ZM614.765 136.71H612.505V142.59C612.205 141.97 611.345 141.19 609.645 141.19C606.905 141.19 605.005 143.49 605.005 146.29C605.005 149.23 606.885 151.43 609.685 151.43C611.065 151.43 612.085 150.75 612.545 149.93C612.545 150.33 612.605 150.97 612.645 151.19H614.865C614.845 151.03 614.765 150.29 614.765 149.41V136.71Z" fill="#101010"/>
</svg>
